<?xml version="1.0" encoding="UTF-8" standalone="no"?>
<svg
   width="20.003101"
   height="20.003101"
   viewBox="0 0 20.003101 20.003101"
   fill="none"
   version="1.1"
   id="svg1"
   sodipodi:docname="main.svg"
   inkscape:version="1.3 (0e150ed6c4, 2023-07-21)"
   xmlns:inkscape="http://www.inkscape.org/namespaces/inkscape"
   xmlns:sodipodi="http://sodipodi.sourceforge.net/DTD/sodipodi-0.dtd"
   xmlns="http://www.w3.org/2000/svg"
   xmlns:svg="http://www.w3.org/2000/svg">
  <defs
     id="defs1" />
  <sodipodi:namedview
     id="namedview1"
     pagecolor="#ffffff"
     bordercolor="#666666"
     borderopacity="1.0"
     inkscape:showpageshadow="2"
     inkscape:pageopacity="0.0"
     inkscape:pagecheckerboard="0"
     inkscape:deskcolor="#d1d1d1"
     inkscape:zoom="23.002453"
     inkscape:cx="4.3038888"
     inkscape:cy="7.1948848"
     inkscape:window-width="1920"
     inkscape:window-height="1014"
     inkscape:window-x="1920"
     inkscape:window-y="28"
     inkscape:window-maximized="1"
     inkscape:current-layer="svg1" />
  <path
     d="m 6.0015502,13.00155 v 2 M 10.00155,9.0015502 V 15.00155 m 4,-9.9999998 V 15.00155 m -8.1999998,4 H 14.20155 c 1.6802,0 2.5202,0 3.162,-0.327 0.5645,-0.2876 1.0234,-0.7465 1.311,-1.311 0.327,-0.6418 0.327,-1.4818 0.327,-3.162 V 5.8015502 c 0,-1.68016 0,-2.52024 -0.327,-3.16197 -0.2876,-0.56449 -0.7465,-1.02343 -1.311,-1.31105 -0.6418,-0.32698 -1.4818,-0.32698 -3.162,-0.32698 H 5.8015502 c -1.68016,0 -2.52024,0 -3.16197,0.32698 -0.56449,0.28762 -1.02343,0.74656 -1.31105,1.31105 -0.32698,0.64173 -0.32698,1.48181 -0.32698,3.16197 V 14.20155 c 0,1.6802 0,2.5202 0.32698,3.162 0.28762,0.5645 0.74656,1.0234 1.31105,1.311 0.64173,0.327 1.48181,0.327 3.16197,0.327 z"
     stroke="white"
     stroke-width="2"
     stroke-linecap="round"
     stroke-linejoin="round"
     id="path1"
     style="stroke:#d0d5dd;stroke-opacity:1" />
</svg>
