<svg width="20" height="18" viewBox="0 0 20 18" fill="none" xmlns="http://www.w3.org/2000/svg">
<path d="M7.5 6.30252C7.5 5.87826 7.5 5.66614 7.59974 5.54771C7.68666 5.44451 7.81971 5.37994 7.96438 5.37076C8.13038 5.36022 8.33112 5.47493 8.73261 5.70435L13.4532 8.40183C13.8016 8.60091 13.9758 8.70044 14.0359 8.82701C14.0885 8.9376 14.0885 9.0624 14.0359 9.17299C13.9758 9.29956 13.8016 9.39909 13.4532 9.59817L8.73261 12.2957C8.33112 12.5251 8.13038 12.6398 7.96438 12.6292C7.81971 12.6201 7.68666 12.5555 7.59974 12.4523C7.5 12.3339 7.5 12.1217 7.5 11.6975V6.30252Z" stroke="#667085" stroke-width="1.5" stroke-linecap="round" stroke-linejoin="round"/>
<path d="M1 5.26667C1 3.77319 1 3.02646 1.32698 2.45603C1.6146 1.95426 2.07354 1.54631 2.63803 1.29065C3.27976 1 4.11984 1 5.8 1H14.2C15.8802 1 16.7202 1 17.362 1.29065C17.9265 1.54631 18.3854 1.95426 18.673 2.45603C19 3.02646 19 3.77319 19 5.26667V12.7333C19 14.2268 19 14.9735 18.673 15.544C18.3854 16.0457 17.9265 16.4537 17.362 16.7094C16.7202 17 15.8802 17 14.2 17H5.8C4.11984 17 3.27976 17 2.63803 16.7094C2.07354 16.4537 1.6146 16.0457 1.32698 15.544C1 14.9735 1 14.2268 1 12.7333V5.26667Z" stroke="#667085" stroke-width="1.5" stroke-linecap="round" stroke-linejoin="round"/>
</svg>
