<?xml version="1.0" encoding="UTF-8"?><svg id="Ebene_1" xmlns="http://www.w3.org/2000/svg" viewBox="0 0 104.14 36.36"><defs><style>.cls-1{fill:#fff;stroke-width:0px;}</style></defs><path class="cls-1" d="m1.09,26.17h.9v3.93c.63-.94,1.38-1.36,2.44-1.36,1.89,0,3.1,1.45,3.1,3.75s-1.26,3.88-3.21,3.88c-1.02,0-1.72-.41-2.34-1.33v1.14h-.9v-9.99Zm.9,6.34c0,1.93.85,3.06,2.32,3.06s2.32-1.12,2.32-3.03-.87-3.01-2.32-3.01-2.32,1.14-2.32,2.98Z"/><path class="cls-1" d="m13.97,36.16v-1.02c-.6.87-1.23,1.21-2.26,1.21-.82,0-1.47-.25-1.9-.75-.34-.41-.48-.9-.48-1.74v-4.95h.9v4.74c0,.75.09,1.11.34,1.41.27.31.72.49,1.24.49.61,0,1.18-.22,1.57-.63.42-.42.58-.94.58-1.75v-4.26h.9v7.24h-.9Z"/><path class="cls-1" d="m21.33,31.01c-.18-1.03-.75-1.48-1.84-1.48s-1.71.46-1.71,1.23c0,.55.33.88,1.08,1.06l1.8.43c1.18.28,1.71.84,1.71,1.81,0,1.39-1.11,2.29-2.8,2.29-1.05,0-1.92-.33-2.41-.93-.34-.42-.48-.82-.51-1.57h.94c.06,1.14.73,1.71,2.02,1.71,1.11,0,1.81-.54,1.81-1.38,0-.58-.37-.93-1.17-1.12l-1.74-.42c-1.14-.27-1.68-.87-1.68-1.84,0-1.27,1.03-2.07,2.68-2.07s2.62.79,2.71,2.28h-.9Z"/><path class="cls-1" d="m25.01,27.36h-.9v-1.2h.9v1.2Zm0,8.8h-.9v-7.24h.9v7.24Z"/><path class="cls-1" d="m28.12,28.92v1.02c.6-.87,1.23-1.21,2.26-1.21.82,0,1.47.25,1.9.75.34.4.48.9.48,1.74v4.94h-.9v-4.73c0-.75-.09-1.11-.34-1.41-.27-.31-.72-.49-1.24-.49-.61,0-1.18.22-1.57.63-.42.42-.58.94-.58,1.75v4.25h-.9v-7.24h.9Z"/><path class="cls-1" d="m35.45,32.68c.06,1.81.94,2.88,2.38,2.88,1.03,0,1.75-.55,2.13-1.66h.91c-.51,1.63-1.54,2.46-3.07,2.46-1.99,0-3.25-1.45-3.25-3.78s1.29-3.85,3.22-3.85c1.39,0,2.49.79,2.86,2.05.18.58.24,1.08.24,1.9h-5.42Zm4.51-.72c-.09-1.54-.88-2.44-2.16-2.44s-2.08.87-2.31,2.44h4.46Z"/><path class="cls-1" d="m46.93,31.01c-.18-1.03-.75-1.48-1.84-1.48s-1.71.46-1.71,1.23c0,.55.33.88,1.08,1.06l1.8.43c1.18.28,1.71.84,1.71,1.81,0,1.39-1.11,2.29-2.8,2.29-1.05,0-1.92-.33-2.41-.93-.34-.42-.48-.82-.51-1.57h.94c.06,1.14.73,1.71,2.02,1.71,1.11,0,1.81-.54,1.81-1.38,0-.58-.37-.93-1.17-1.12l-1.74-.42c-1.14-.27-1.68-.87-1.68-1.84,0-1.27,1.03-2.07,2.68-2.07s2.62.79,2.71,2.28h-.9Z"/><path class="cls-1" d="m54,31.01c-.18-1.03-.75-1.48-1.84-1.48s-1.71.46-1.71,1.23c0,.55.33.88,1.08,1.06l1.8.43c1.18.28,1.71.84,1.71,1.81,0,1.39-1.11,2.29-2.8,2.29-1.05,0-1.92-.33-2.41-.93-.34-.42-.48-.82-.51-1.57h.94c.06,1.14.73,1.71,2.02,1.71,1.11,0,1.81-.54,1.81-1.38,0-.58-.37-.93-1.17-1.12l-1.74-.42c-1.14-.27-1.68-.87-1.68-1.84,0-1.27,1.03-2.07,2.68-2.07s2.62.79,2.71,2.28h-.9Z"/><polygon class="cls-1" points="89.63 9.6 86.51 5.48 82.25 5.48 80.24 5.48 80.24 9.6 82.25 9.6 82.25 19.97 86.51 19.97 86.51 9.6 89.63 9.6"/><path class="cls-1" d="m8.92,9.85c-.18-1.08-1.05-1.65-2.46-1.65-1.23,0-2.04.48-2.04,1.2,0,.54.42.81,1.77,1.11l2.66.57c1.77.36,2.67.75,3.29,1.41.69.66,1.08,1.74,1.08,2.9,0,3.05-2.49,4.97-6.5,4.97S.24,18.48,0,15.27h3.98c.24,1.38,1.14,2.01,2.84,2.01,1.35,0,2.22-.54,2.22-1.41,0-.69-.48-1.05-1.62-1.32l-2.63-.6C1.62,13.26.39,12.1.39,9.79c0-2.9,2.31-4.67,6.17-4.67s5.96,1.68,6.35,4.73h-3.98Z"/><path class="cls-1" d="m19.16,3.5h-4.25V0h4.25v3.5Zm0,16.47h-4.25V5.51h4.25v14.46Z"/><path class="cls-1" d="m28.75,8.68h-2.61v5.63c0,2.28.09,2.46,1.08,2.46h1.53v3.2h-2.61c-1.86,0-2.78-.27-3.41-.96-.66-.72-.84-1.5-.84-3.74V1.11h4.25v4.58h2.61v2.99Z"/><path class="cls-1" d="m33.84,13.98c.27,1.98,1.44,3.05,3.26,3.05,1.14,0,1.95-.39,2.52-1.29h4.31c-.81,2.81-3.5,4.61-6.95,4.61-4.46,0-7.43-3.05-7.43-7.61s3.02-7.64,7.4-7.64c3.05,0,5.36,1.53,6.44,4.25.51,1.26.72,2.61.72,4.61h-10.27Zm5.9-2.99c-.18-1.71-1.17-2.64-2.81-2.64s-2.72.93-3.05,2.64h5.87Z"/><path class="cls-1" d="m48.42,19.97l-4.31-14.46h4.31l1.23,4.73c.33,1.29.78,3.47.96,4.67.42-2.16.78-3.83.99-4.67l1.23-4.73h3.68l1.29,4.73c.54,2.22.81,3.47,1.02,4.67.24-1.5.51-2.81.93-4.67l1.14-4.73h4.4l-4.1,14.46h-4.07l-1.35-5.06c-.42-1.74-.69-2.96-1.08-4.85-.42,2.01-.78,3.59-1.08,4.85l-1.2,5.06h-3.98Z"/><path class="cls-1" d="m65.93,10.06c.27-3.32,2.34-4.94,6.41-4.94,2.19,0,3.86.51,5,1.5,1.05.93,1.44,2.1,1.44,4.22v6.65c0,1.56.06,1.77.54,2.49h-4.34c-.18-.51-.18-.6-.33-1.14-1.41,1.17-2.43,1.53-4.13,1.53-3.2,0-5.33-1.8-5.33-4.52s1.71-4.13,5.75-4.79l2.31-.39c.96-.15,1.29-.39,1.29-.99,0-.81-.84-1.32-2.22-1.32-1.56,0-2.4.54-2.58,1.71h-3.8Zm8.71,3.02c-.45.18-.84.3-1.56.45l-1.53.33c-1.53.36-2.19.87-2.19,1.74,0,.96.81,1.53,2.16,1.53s2.43-.6,3.11-1.83v-2.22Z"/><path class="cls-1" d="m93.87,13.98c.27,1.98,1.44,3.05,3.26,3.05,1.14,0,1.95-.39,2.52-1.29h4.31c-.81,2.81-3.5,4.61-6.95,4.61-4.46,0-7.43-3.05-7.43-7.61s3.02-7.64,7.4-7.64c3.05,0,5.36,1.53,6.44,4.25.51,1.26.72,2.61.72,4.61h-10.27Zm5.9-2.99c-.18-1.71-1.17-2.64-2.81-2.64s-2.72.93-3.05,2.64h5.87Z"/></svg>