<?xml version="1.0" encoding="UTF-8"?><svg id="Ebene_1" xmlns="http://www.w3.org/2000/svg" viewBox="0 0 104.14 36.36"><defs><style>.cls-1{fill:#1d1d1b;stroke-width:0px;}</style></defs><path class="cls-1" d="m1.99,28.92v.93c.5-.78,1.14-1.12,2.11-1.12,1.12,0,1.75.39,2.1,1.29.51-.88,1.23-1.29,2.31-1.29.75,0,1.38.24,1.8.7.39.42.5.81.5,1.77v4.96h-.9v-4.96c0-1.12-.51-1.68-1.54-1.68-.71,0-1.26.27-1.59.78-.25.4-.36.87-.36,1.65v4.21h-.9v-4.96c0-.58-.07-.91-.3-1.18-.25-.31-.67-.49-1.2-.49-1.24,0-2.02.85-2.02,2.19v4.45h-.9v-7.24h.9Z"/><path class="cls-1" d="m12.87,31.13c.04-1.59,1.03-2.4,2.91-2.4,1.75,0,2.67.73,2.67,2.17v4.06c0,.43.1.61.38.61.12,0,.21-.02.43-.09v.7c-.32.06-.46.09-.67.09-.51,0-.82-.19-.97-.6-.06-.18-.06-.19-.06-.58-.61.85-1.47,1.26-2.62,1.26-1.48,0-2.38-.79-2.38-2.08,0-.63.24-1.21.66-1.56.34-.3.82-.48,1.6-.61l2.14-.34c.54-.09.57-.12.57-.72,0-1.08-.52-1.51-1.8-1.51s-1.83.48-1.89,1.6h-.96Zm2.08,1.74c-.99.16-1.47.61-1.47,1.38,0,.84.61,1.36,1.59,1.36,1.47,0,2.47-.96,2.47-2.37v-.82l-2.59.45Z"/><path class="cls-1" d="m21.6,27.36h-.9v-1.2h.9v1.2Zm0,8.8h-.9v-7.24h.9v7.24Z"/><path class="cls-1" d="m24.75,36.16h-.94v-9.99h.94v9.99Z"/><polygon class="cls-1" points="89.63 9.6 86.51 5.48 82.25 5.48 80.24 5.48 80.24 9.6 82.25 9.6 82.25 19.97 86.51 19.97 86.51 9.6 89.63 9.6"/><path class="cls-1" d="m8.92,9.85c-.18-1.08-1.05-1.65-2.46-1.65-1.23,0-2.04.48-2.04,1.2,0,.54.42.81,1.77,1.11l2.66.57c1.77.36,2.67.75,3.29,1.41.69.66,1.08,1.74,1.08,2.9,0,3.05-2.49,4.97-6.5,4.97S.24,18.48,0,15.27h3.98c.24,1.38,1.14,2.01,2.84,2.01,1.35,0,2.22-.54,2.22-1.41,0-.69-.48-1.05-1.62-1.32l-2.63-.6C1.62,13.26.39,12.1.39,9.79c0-2.9,2.31-4.67,6.17-4.67s5.96,1.68,6.35,4.73h-3.98Z"/><path class="cls-1" d="m19.16,3.5h-4.25V0h4.25v3.5Zm0,16.47h-4.25V5.51h4.25v14.46Z"/><path class="cls-1" d="m28.75,8.68h-2.61v5.63c0,2.28.09,2.46,1.08,2.46h1.53v3.2h-2.61c-1.86,0-2.78-.27-3.41-.96-.66-.72-.84-1.5-.84-3.74V1.11h4.25v4.58h2.61v2.99Z"/><path class="cls-1" d="m33.84,13.98c.27,1.98,1.44,3.05,3.26,3.05,1.14,0,1.95-.39,2.52-1.29h4.31c-.81,2.81-3.5,4.61-6.95,4.61-4.46,0-7.43-3.05-7.43-7.61s3.02-7.64,7.4-7.64c3.05,0,5.36,1.53,6.44,4.25.51,1.26.72,2.61.72,4.61h-10.27Zm5.9-2.99c-.18-1.71-1.17-2.64-2.81-2.64s-2.72.93-3.05,2.64h5.87Z"/><path class="cls-1" d="m48.42,19.97l-4.31-14.46h4.31l1.23,4.73c.33,1.29.78,3.47.96,4.67.42-2.16.78-3.83.99-4.67l1.23-4.73h3.68l1.29,4.73c.54,2.22.81,3.47,1.02,4.67.24-1.5.51-2.81.93-4.67l1.14-4.73h4.4l-4.1,14.46h-4.07l-1.35-5.06c-.42-1.74-.69-2.96-1.08-4.85-.42,2.01-.78,3.59-1.08,4.85l-1.2,5.06h-3.98Z"/><path class="cls-1" d="m65.93,10.06c.27-3.32,2.34-4.94,6.41-4.94,2.19,0,3.86.51,5,1.5,1.05.93,1.44,2.1,1.44,4.22v6.65c0,1.56.06,1.77.54,2.49h-4.34c-.18-.51-.18-.6-.33-1.14-1.41,1.17-2.43,1.53-4.13,1.53-3.2,0-5.33-1.8-5.33-4.52s1.71-4.13,5.75-4.79l2.31-.39c.96-.15,1.29-.39,1.29-.99,0-.81-.84-1.32-2.22-1.32-1.56,0-2.4.54-2.58,1.71h-3.8Zm8.71,3.02c-.45.18-.84.3-1.56.45l-1.53.33c-1.53.36-2.19.87-2.19,1.74,0,.96.81,1.53,2.16,1.53s2.43-.6,3.11-1.83v-2.22Z"/><path class="cls-1" d="m93.87,13.98c.27,1.98,1.44,3.05,3.26,3.05,1.14,0,1.95-.39,2.52-1.29h4.31c-.81,2.81-3.5,4.61-6.95,4.61-4.46,0-7.43-3.05-7.43-7.61s3.02-7.64,7.4-7.64c3.05,0,5.36,1.53,6.44,4.25.51,1.26.72,2.61.72,4.61h-10.27Zm5.9-2.99c-.18-1.71-1.17-2.64-2.81-2.64s-2.72.93-3.05,2.64h5.87Z"/></svg>