<?xml version="1.0" encoding="UTF-8" standalone="no"?>
<!-- Created with Inkscape (http://www.inkscape.org/) -->

<svg
   width="114.22063mm"
   height="42.439175mm"
   viewBox="0 0 114.22063 42.439175"
   version="1.1"
   id="svg1"
   xmlns:inkscape="http://www.inkscape.org/namespaces/inkscape"
   xmlns:sodipodi="http://sodipodi.sourceforge.net/DTD/sodipodi-0.dtd"
   xmlns="http://www.w3.org/2000/svg"
   xmlns:svg="http://www.w3.org/2000/svg">
  <sodipodi:namedview
     id="namedview1"
     pagecolor="#ffffff"
     bordercolor="#666666"
     borderopacity="1.0"
     inkscape:showpageshadow="2"
     inkscape:pageopacity="0.0"
     inkscape:pagecheckerboard="0"
     inkscape:deskcolor="#d1d1d1"
     inkscape:document-units="mm" />
  <defs
     id="defs1" />
  <g
     inkscape:label="Ebene 1"
     inkscape:groupmode="layer"
     id="layer1"
     transform="translate(-48.154168,-127.26458)">
    <g
       id="g33"
       inkscape:export-filename="g33.png"
       inkscape:export-xdpi="96"
       inkscape:export-ydpi="96"
       transform="matrix(0.26458333,0,0,0.26458333,4.8683337,-17.594787)">&#10;	<path
   class="st0"
   d="m 170.2,665.5 v 4.2 c 2.5,-3.6 5.2,-5.1 9.2,-5.1 3.9,0 6.3,1.4 8.1,4.6 2.8,-3.4 5.2,-4.6 9.2,-4.6 5.6,0 8.7,3 8.7,8.3 v 22.5 h -4.8 v -20.6 c 0,-3.8 -2.1,-6 -5.5,-6 -3.9,0 -7,3.5 -7,7.8 v 18.8 h -4.8 v -20.6 c 0,-3.8 -2,-6 -5.5,-6 -3.9,0 -7,3.5 -7,7.8 v 18.8 H 166 v -30 h 4.2 z"
   id="path25"
   style="fill:#010202" />
&#10;	<path
   class="st0"
   d="m 240,696.2 c -1.6,0.4 -2.2,0.5 -3.3,0.5 -3.1,0 -4.6,-1.3 -4.9,-4.4 -3.4,3.1 -6.4,4.4 -10.2,4.4 -6.1,0 -9.8,-3.4 -9.8,-8.9 0,-3.9 1.8,-6.5 5.3,-8 1.8,-0.7 2.9,-1 9.6,-1.8 3.9,-0.5 4.9,-1.3 5,-3.3 v -1.3 c 0,-2.9 -2.3,-4.5 -6.7,-4.5 -4.5,0 -6.6,1.7 -7,5.3 h -4.8 c 0.1,-3 0.7,-4.7 2.1,-6.2 2.1,-2.2 5.5,-3.5 10,-3.5 7.4,0 11.3,2.9 11.3,8.2 v 17.6 c 0,1.5 0.9,2.3 2.6,2.3 0.3,0 0.5,0 1,-0.1 v 3.7 z m -8.4,-15.6 c -1.6,0.7 -2.6,1 -7.7,1.7 -5.1,0.7 -7.2,2.3 -7.2,5.5 0,3 2.2,4.8 5.9,4.8 2.8,0 5.1,-0.9 7.1,-2.7 1.4,-1.3 1.9,-2.3 1.9,-3.9 z"
   id="path26"
   style="fill:#010202" />
&#10;	<path
   class="st0"
   d="M 249.8,659.7 H 245 v -6 h 4.8 z m 0,35.7 H 245 v -30 h 4.7 v 30 z"
   id="path27"
   style="fill:#010202" />
&#10;	<path
   class="st0"
   d="m 262.6,695.4 h -4.8 v -41.7 h 4.8 z"
   id="path28"
   style="fill:#010202" />
&#10;	<path
   class="st0"
   d="m 290.3,653.7 v 15.8 c 2.2,-3.4 5.1,-4.9 9.3,-4.9 7.9,0 12.8,6 12.8,15.7 0,10 -5.1,16.4 -13,16.4 -4.2,0 -7.2,-1.7 -9.5,-5.1 v 3.8 h -4.3 v -41.7 z m 0,27 c 0,7 3.3,11.6 8.3,11.6 5.2,0 8.8,-4.6 8.8,-11.4 0,-7.1 -3.4,-11.8 -8.8,-11.8 -5,0 -8.3,4.5 -8.3,11.6 z"
   id="path29"
   style="fill:#010202" />
&#10;	<path
   class="st0"
   d="m 337.5,695.4 v -4.2 c -2.8,3.9 -5.6,5.5 -10,5.5 -5.8,0 -9.6,-3.2 -9.6,-8.2 v -23.1 h 4.7 v 21.2 c 0,3.6 2.4,5.9 6.2,5.9 5,0 8.2,-4 8.2,-10.1 v -17 h 4.7 v 30 z"
   id="path30"
   style="fill:#010202" />
&#10;	<path
   class="st0"
   d="m 374.4,695.4 h -4.2 v -3.9 c -2.6,3.7 -5.4,5.3 -9.6,5.3 -8.1,0 -13,-6.2 -13,-16.4 0,-9.6 5.1,-15.8 12.9,-15.8 4,0 7.2,1.6 9.2,4.6 v -15.5 h 4.7 z m -21.9,-14.7 c 0,7 3.5,11.6 8.8,11.6 5,0 8.3,-4.6 8.3,-11.5 0,-7.2 -3.3,-11.7 -8.4,-11.7 -5.2,0 -8.7,4.6 -8.7,11.6 z"
   id="path31"
   style="fill:#010202" />
&#10;	<path
   class="st0"
   d="M 406.2,695.4 H 402 v -3.9 c -2.6,3.7 -5.4,5.3 -9.6,5.3 -8.1,0 -13,-6.2 -13,-16.4 0,-9.6 5.1,-15.8 12.9,-15.8 4,0 7.2,1.6 9.2,4.6 v -15.5 h 4.7 z m -21.9,-14.7 c 0,7 3.5,11.6 8.8,11.6 5,0 8.4,-4.6 8.4,-11.5 0,-7.2 -3.3,-11.7 -8.4,-11.7 -5.3,0 -8.8,4.6 -8.8,11.6 z"
   id="path32"
   style="fill:#010202" />
&#10;	<path
   class="st0"
   d="m 436.9,665.5 -13.3,36.3 c -0.9,2.4 -1.8,3.7 -3.3,4.7 -1.3,0.9 -2.9,1.4 -4.5,1.4 -1.3,0 -2.2,-0.2 -3.2,-0.7 v -4.3 c 1,0.2 1.7,0.3 2.5,0.3 2,0 3,-0.8 3.8,-2.9 l 1.8,-4.7 -10.1,-30.1 h 5.1 l 7.7,23.3 8.3,-23.3 z"
   id="path33"
   style="fill:#010202" />
&#10;</g>
    <g
       id="g40"
       transform="matrix(0.26458333,0,0,0.26458333,4.8683337,-17.594787)">&#10;	<polygon
   class="st0"
   points="535.1,587.3 522.2,571.3 496.2,570.2 496.2,587.3 504.5,587.3 504.5,630.3 522.2,630.3 522.2,587.3 "
   id="polygon33"
   style="fill:#010202" />
&#10;	<path
   class="st0"
   d="m 200.5,588.3 c -0.7,-4.5 -4.3,-6.8 -10.2,-6.8 -5.1,0 -8.4,2 -8.4,5 0,2.2 1.7,3.4 7.3,4.6 l 11,2.4 c 7.3,1.5 11,3.1 13.7,5.8 2.9,2.7 4.5,7.2 4.5,12 0,12.7 -10.3,20.6 -26.9,20.6 -16.6,0 -26.9,-7.8 -27.9,-21.1 H 180 c 1,5.7 4.7,8.3 11.8,8.3 5.6,0 9.2,-2.2 9.2,-5.8 0,-2.9 -2,-4.3 -6.7,-5.5 l -10.9,-2.5 c -13.2,-2.9 -18.2,-7.7 -18.2,-17.3 0,-12 9.6,-19.4 25.6,-19.4 15.4,0 24.7,7 26.3,19.6 h -16.6 z"
   id="path34"
   style="fill:#010202" />
&#10;	<path
   class="st0"
   d="M 243,562 H 225.4 V 547.5 H 243 Z m 0,68.3 h -17.6 v -60 H 243 Z"
   id="path35"
   style="fill:#010202" />
&#10;	<path
   class="st0"
   d="m 282.7,583.5 h -10.8 v 23.3 c 0,9.4 0.4,10.2 4.5,10.2 h 6.3 v 13.3 h -10.8 c -7.7,0 -11.5,-1.1 -14.2,-4 -2.7,-3 -3.5,-6.2 -3.5,-15.5 v -58.7 h 17.6 v 19 h 10.8 v 12.4 z"
   id="path36"
   style="fill:#010202" />
&#10;	<path
   class="st0"
   d="m 303.8,605.5 c 1.1,8.2 6,12.7 13.5,12.7 4.7,0 8.1,-1.6 10.4,-5.3 h 17.9 c -3.4,11.7 -14.5,19.1 -28.8,19.1 -18.5,0 -30.8,-12.7 -30.8,-31.5 0,-18.7 12.5,-31.7 30.7,-31.7 12.7,0 22.2,6.3 26.7,17.6 2.1,5.2 3,10.8 3,19.1 z M 328.2,593 c -0.7,-7.1 -4.8,-10.9 -11.7,-10.9 -6.8,0 -11.3,3.8 -12.7,10.9 z"
   id="path37"
   style="fill:#010202" />
&#10;	<path
   class="st0"
   d="m 364.2,630.3 -17.9,-60 h 17.9 l 5.1,19.6 c 1.4,5.3 3.2,14.4 4,19.4 1.7,-8.9 3.2,-15.9 4.1,-19.4 l 5.1,-19.6 h 15.3 l 5.3,19.6 c 2.2,9.2 3.4,14.4 4.2,19.4 1,-6.2 2.1,-11.7 3.8,-19.4 l 4.7,-19.6 H 434 l -17,60 h -16.9 l -5.6,-21 c -1.7,-7.2 -2.9,-12.3 -4.5,-20.1 -1.7,8.3 -3.2,14.9 -4.5,20.1 l -5,21 z"
   id="path38"
   style="fill:#010202" />
&#10;	<path
   class="st0"
   d="m 436.9,589.2 c 1.1,-13.8 9.7,-20.5 26.6,-20.5 9.1,0 16,2.1 20.7,6.2 4.3,3.8 6,8.7 6,17.5 V 620 c 0,6.5 0.2,7.3 2.2,10.3 h -18 c -0.7,-2.1 -0.7,-2.5 -1.4,-4.7 -5.8,4.8 -10.1,6.3 -17.1,6.3 -13.3,0 -22.1,-7.4 -22.1,-18.7 0,-11.3 7.1,-17.1 23.8,-19.9 l 9.6,-1.6 c 4,-0.6 5.3,-1.6 5.3,-4.1 0,-3.4 -3.5,-5.5 -9.2,-5.5 -6.5,0 -9.9,2.2 -10.7,7.1 z m 36.1,12.5 c -1.9,0.7 -3.5,1.2 -6.5,1.9 l -6.3,1.4 c -6.3,1.5 -9.1,3.6 -9.1,7.2 0,4 3.4,6.3 8.9,6.3 5.8,0 10.1,-2.5 12.9,-7.6 v -9.2 z"
   id="path39"
   style="fill:#010202" />
&#10;	<path
   class="st0"
   d="m 552.7,605.5 c 1.1,8.2 6,12.7 13.5,12.7 4.7,0 8.1,-1.6 10.4,-5.3 h 17.9 c -3.4,11.7 -14.5,19.1 -28.8,19.1 -18.5,0 -30.8,-12.7 -30.8,-31.5 0,-18.7 12.5,-31.7 30.7,-31.7 12.7,0 22.2,6.3 26.7,17.6 2.1,5.2 3,10.8 3,19.1 z M 577.1,593 c -0.7,-7.1 -4.8,-10.9 -11.7,-10.9 -6.8,0 -11.3,3.8 -12.7,10.9 z"
   id="path40"
   style="fill:#010202" />
&#10;</g>
  </g>
</svg>
